<svg xmlns="http://www.w3.org/2000/svg" width="192.291" height="40" viewBox="-22.208 0 192.291 40"><path fill="#F48120" d="M15.961,9.164c-0.79-0.215-1.613,0.208-1.834,0.941c-0.225,0.743,0.222,1.511,1.01,1.73 c0.776,0.196,1.593-0.236,1.827-0.972C17.195,10.129,16.735,9.362,15.961,9.164L15.961,9.164z M24.676,28.389 C13.478,35.482-1.649,29.902,3.166,13.15C6.082,3.173,18.392,0.592,25.6,4.823c12.676,7.343,4.263,22.574-0.546,20.759 c-5.616-2.27-3.346-9.205-3.346-13.739c3.337-0.934,6.474-0.98,8.107,0.192c1.318,1.204-3.142,3.878-5.804,4.448 c-0.117,0.458-0.242,0.881-0.365,1.344c4.047-1.532,4.201,0.011-0.438,1.47c-0.138,0.512-0.273,1.021-0.402,1.551 c4.238-1.603,5.77-3.153,4.293-4.223c3.233-1.74,4.646-4.211,2.674-5.446c-2.408-1.27-5.257-1.366-8.149-0.66 c-0.428-1.982-1.339-3.449-2.947-4.128c-1.13-0.437-2.887-0.057-4.038,0.99c0.006,0,0.003,0-3.873-1.885 c0.008,0.007,0.002-0.019,1.229,4.058c-1.328,1.141-2.265,2.921-2.955,4.758c-0.054,0.132,0.047,0.165,0.291,0.132 c1.058-1.686,1.81-3.358,3.758-4.173c0.149-0.186,0.246-0.495,0.226-0.743c-1.479-2.793,0.007,0-1.494-2.749 c2.659,1.923,0,0.008,2.667,1.957c2.157-2.349,5.21-1.47,5.303,2.24C12.864,13.213,6.58,19.513,5.772,24.67 c-0.134,0.912,0.284,1.922,2.285,1.76c3.766-0.353,7.622-3.304,10.364-6.426c-0.244-0.401-0.49-0.847-0.733-1.245 c-5.115,6.96-11.126,7.872-10.885,6.386C8,19.169,13.944,14.395,19.876,12.266c-0.098,4.105-1.556,12.326,4.431,14.042 c8.334,2.23,15.317-19.079-1.753-23.96C12.496-0.705,3.104,5.517,1.119,14.136c-2.448,11.59,2.586,17.713,11.237,19.456 c5.045,0.945,10.542-0.261,14.48-2.68C26.661,30.863,24.617,28.4,24.676,28.389L24.676,28.389z"/><path fill="#6D6E70" d="M42.378,3.579V1.605c1.229-0.083,2.558-0.257,3.996-0.573V9.61c0.195-0.599,0.546-1.144,1.082-1.591 c0.533-0.474,1.016-0.708,1.443-0.708c1.525-0.082,2.518,0.782,2.971,2.546c0.475,1.799,0.735,3.978,0.783,6.603 c0.129,7.295-1.074,10.938-3.627,10.938c-0.488-0.076-0.993-0.33-1.513-0.785c-0.514-0.438-0.894-0.865-1.139-1.36v7.293h1.139 v1.888h-4.767v-1.888h1.188v-7.293c-0.277,0.509-0.648,0.99-1.134,1.454c-0.469,0.404-0.965,0.668-1.49,0.691 c-1.57,0.055-2.568-0.914-3.006-2.949c-0.439-2.002-0.651-4.491-0.651-7.415c0.082-6.515,1.318-9.734,3.709-9.722 c0.489,0,0.993,0.234,1.51,0.647c0.505,0.441,0.866,0.994,1.062,1.678V3.579H42.378L42.378,3.579z M43.934,14.89 c0-3.202-0.603-4.784-1.801-4.765c-0.379,0-0.741,0.312-1.065,0.896c-0.372,0.602-0.567,1.555-0.567,2.813 c-0.049,1.54-0.081,2.678-0.081,3.443c0,2.342,0.081,4.179,0.243,5.499c0.163,1.32,0.684,1.992,1.552,2.022 c1.148,0,1.719-1.187,1.719-3.508V14.89L43.934,14.89z M46.374,21.292c0,2.408,0.602,3.624,1.787,3.624 c0.475-0.035,0.865-0.488,1.19-1.303c0.21-0.508,0.358-1.332,0.407-2.486c0.047-1.614,0.082-2.851,0.082-3.745 c0-0.675-0.008-1.227-0.028-1.652c-0.006-0.422-0.021-0.877-0.054-1.407c0.047-1.584-0.119-2.716-0.529-3.324 c-0.349-0.57-0.741-0.873-1.148-0.873c-1.137,0-1.706,1.219-1.706,3.63L46.374,21.292L46.374,21.292z M54.004,17.358 c0-2.554,0.429-4.865,1.326-6.931c0.879-2.065,2.221-3.116,4.011-3.116c1.77,0,3.09,0.984,4,2.959 c0.897,1.979,1.337,4.339,1.337,7.088c0,2.718-0.447,5.087-1.358,7.068c-0.912,1.98-2.237,2.971-3.979,2.971 c-1.79-0.022-3.131-1.101-4.011-3.135C54.433,22.163,54.004,19.87,54.004,17.358L54.004,17.358z M57.095,17.358 c0,0.487,0,0.985,0,1.466c0,0.502,0,1.014,0,1.535c0.138,1.594,0.326,2.854,0.569,3.737c0.244,0.834,0.797,1.32,1.63,1.32 c0.843,0,1.421-0.473,1.735-1.375c0.32-0.936,0.495-2.146,0.557-3.683c0.019-0.683,0.033-1.678,0.033-3.001 c0-1.376-0.014-2.387-0.033-3.036c-0.062-1.503-0.236-2.73-0.557-3.677c-0.314-0.953-0.892-1.39-1.735-1.366 c-0.833,0-1.397,0.438-1.65,1.334c-0.249,0.896-0.435,2.131-0.549,3.709c0,0.488,0,0.985,0,1.49S57.095,16.839,57.095,17.358 L57.095,17.358z M70.144,17.846v7.233h1.139v1.823h-5.221v-1.823h1.157V9.61h-1.157V7.799h5.221V9.61h-1.139v6.106h3.59V9.61h-1.183 V7.799h5.304V9.61H76.63v15.469h1.224v1.823H72.55v-1.823h1.183v-7.233H70.144L70.144,17.846z M86.82,26.902h-5.223v-1.823h1.141 V9.8c-0.66-0.107-1.155,0.141-1.466,0.71c-0.103,0.2-0.184,0.592-0.243,1.164c-0.051,0.761-0.099,1.317-0.106,1.673 c0,0.305-0.017,0.635-0.033,0.976c-0.017,0.369-0.041,0.649-0.063,0.872h-1.751V7.799h10.266v7.396h-1.789 c0-0.813-0.018-1.439-0.029-1.848c-0.07-0.765-0.119-1.318-0.165-1.673c0-0.498-0.083-0.907-0.249-1.164 c-0.309-0.569-0.795-0.817-1.479-0.71v15.279h1.188V26.902L86.82,26.902z M100.682,25.287v1.678 c-0.602,0.268-1.139,0.434-1.626,0.434c-1.226-0.076-2.035-0.776-2.409-2.11c-0.244,0.46-0.643,0.955-1.203,1.375 c-0.563,0.44-1.09,0.712-1.611,0.735c-0.765,0-1.472-0.399-2.14-1.155c-0.667-0.774-1.016-1.894-1.034-3.388 c-0.031-2.382,0.579-4.141,1.815-5.311c1.228-1.168,2.627-1.984,4.173-2.432V11.08c0-1.052-0.439-1.563-1.301-1.604 c-0.408,0-0.717,0.08-0.893,0.242c-0.197,0.163-0.328,0.388-0.377,0.651c-0.033,0.123-0.016,0.397,0.047,0.813 c0.02,0.124,0.06,0.245,0.092,0.351c0.049,0.142,0.074,0.236,0.074,0.359c0.049,0.439,0.049,0.766,0,0.967 c-0.094,0.611-0.278,1.041-0.588,1.36c-0.291,0.283-0.617,0.43-0.976,0.43c-0.405-0.039-0.747-0.273-1.033-0.698 c-0.291-0.433-0.431-1.065-0.431-1.949c0.033-0.899,0.253-1.698,0.675-2.391c0.424-0.722,0.983-1.274,1.692-1.707 c0.709-0.423,1.396-0.604,2.041-0.592c0.865,0,1.742,0.399,2.604,1.163c0.877,0.79,1.302,2.279,1.302,4.465v9.75 c0,0.199,0.008,0.375,0.023,0.516c0.016,0.146,0.023,0.396,0.023,0.676c0,0.547,0.049,0.906,0.162,1.042 C99.977,25.173,100.275,25.287,100.682,25.287L100.682,25.287z M96.646,17.382c-1.821,0.53-2.88,1.984-3.185,4.404 c-0.183,1.68,0.19,2.642,1.156,2.806c0.45,0.014,0.901-0.219,1.354-0.794c0.462-0.526,0.675-1.417,0.675-2.625V17.382L96.646,17.382 z M106.066,17.846v7.233h1.14v1.823h-5.223v-1.823h1.139V9.61h-1.139V7.799h5.223V9.61h-1.14v6.106h3.58V9.61h-1.168V7.799h5.287 V9.61h-1.222v15.469h1.222v1.823h-5.287v-1.823h1.168v-7.233H106.066L106.066,17.846z M115.112,26.902v-1.815h1.139V9.61h-1.139 V7.799h5.143V9.61h-1.144v6.47c0.673,0.132,1.162-0.039,1.423-0.561c0.272-0.529,0.404-0.96,0.404-1.301 c0.063-0.367,0.091-0.782,0.105-1.245c0.016-0.478,0.021-1.042,0.021-1.652c0.117-2.759,1.027-4.092,2.775-4.01 c0.697,0,1.313,0.317,1.818,0.978c0.504,0.636,0.76,1.486,0.791,2.568c0.032,0.896-0.107,1.557-0.396,1.953 c-0.279,0.382-0.597,0.594-0.955,0.594s-0.675-0.177-0.948-0.546c-0.29-0.357-0.428-0.857-0.4-1.514 c0.066-0.445,0.121-0.798,0.211-0.998c0.072-0.162,0.129-0.303,0.162-0.385c0.059-0.119,0.059-0.259,0-0.352 c-0.033-0.151-0.133-0.248-0.324-0.299c-0.163-0.039-0.309-0.017-0.448,0.133c-0.306,0.166-0.431,0.641-0.366,1.413 c0.075,1.702,0.018,3.02-0.186,3.953c-0.213,0.972-0.676,1.649-1.407,2.083c2.332,0.531,3.417,2.294,3.221,5.366 c-0.06,0.408-0.089,0.771-0.118,1.027c-0.029,0.314-0.012,0.568,0.033,0.837c0.053,0.303,0.17,0.513,0.367,0.676 c0.328,0.196,0.677,0.287,1.072,0.279V26.9c-0.586,0.33-1.178,0.494-1.801,0.494c-0.793-0.074-1.399-0.494-1.817-1.271 c-0.425-0.744-0.646-2.101-0.668-4.011c0-1.315-0.099-2.158-0.288-2.619c-0.439-1.187-1.196-1.716-2.282-1.568v7.159h1.144V26.9 h-5.143V26.902z M137.772,25.287v1.678c-0.575,0.268-1.136,0.434-1.625,0.434c-1.225-0.076-2.041-0.776-2.387-2.11 c-0.266,0.46-0.654,0.955-1.217,1.375c-0.578,0.44-1.088,0.712-1.598,0.735c-0.791,0-1.475-0.399-2.143-1.155 c-0.667-0.774-1.018-1.894-1.053-3.388c-0.03-2.382,0.574-4.141,1.814-5.311c1.23-1.168,2.628-1.984,4.193-2.432V11.08 c0-1.052-0.469-1.563-1.314-1.604c-0.413,0-0.705,0.08-0.9,0.242c-0.196,0.163-0.312,0.388-0.377,0.651 c-0.035,0.123-0.021,0.397,0.051,0.813c0.037,0.124,0.074,0.245,0.084,0.351c0.056,0.142,0.078,0.236,0.078,0.359 c0.072,0.439,0.072,0.766,0,0.967c-0.086,0.611-0.258,1.041-0.582,1.36c-0.299,0.283-0.623,0.43-0.982,0.43 c-0.382-0.039-0.738-0.273-1.012-0.698c-0.311-0.433-0.451-1.065-0.451-1.949c0.033-0.899,0.273-1.698,0.676-2.391 c0.442-0.722,0.982-1.274,1.701-1.707c0.721-0.423,1.385-0.604,2.045-0.592c0.841,0,1.729,0.399,2.617,1.163 c0.852,0.79,1.292,2.279,1.292,4.465v9.75c0,0.199,0.014,0.375,0.034,0.516c0.014,0.146,0.019,0.396,0.019,0.676 c0,0.547,0.021,0.906,0.164,1.042C137.067,25.173,137.395,25.287,137.772,25.287L137.772,25.287z M133.761,17.382 c-1.82,0.53-2.9,1.984-3.193,4.404c-0.194,1.68,0.202,2.642,1.14,2.806c0.453,0.014,0.908-0.219,1.385-0.794 c0.43-0.526,0.67-1.417,0.67-2.625L133.761,17.382L133.761,17.382z M139.506,24.757c-0.041-0.755,0.139-1.462,0.531-2.097 c0.348-0.629,0.805-0.945,1.252-0.945c0.487-0.039,0.928,0.238,1.385,0.87c0.396,0.571,0.621,1.263,0.621,2.007 c0,0.713-0.209,1.363-0.614,1.98c-0.369,0.584-0.826,0.88-1.32,0.88c-0.43,0-0.825-0.257-1.235-0.862 C139.715,26.057,139.542,25.417,139.506,24.757L139.506,24.757z M149.034,9.94c0.236-0.603,0.58-1.18,1.139-1.734 c0.559-0.577,1.082-0.854,1.57-0.895c0.51-0.04,1.161,0.152,1.83,0.592c0.682,0.466,1.317,1.451,1.813,2.954 c0.506,1.538,0.774,3.71,0.739,6.583c-0.037,3.687-0.439,6.283-1.271,7.732c-0.831,1.467-1.852,2.225-3.063,2.225 c-1.193-0.074-2.146-0.822-2.76-2.225v7.372h1.139v1.888h-5.18v-1.888h1.153V9.94h-1.12V8.041c0.689-0.082,1.389-0.227,2.109-0.427 c0.255-0.068,0.49-0.124,0.654-0.163c0.162-0.07,0.336-0.082,0.502-0.082c0.254-0.081,0.494-0.153,0.742-0.221V9.94H149.034z M152.929,17.22c0-0.57-0.011-1.09-0.019-1.571c-0.012-0.462-0.031-1.089-0.031-1.894c0.033-1.424-0.114-2.416-0.438-2.979 c-0.373-0.671-0.844-0.992-1.293-0.919c-0.386,0-0.813,0.31-1.21,0.919c-0.418,0.687-0.656,1.7-0.686,3.036 c-0.074,1.504-0.115,2.647-0.115,3.407c0,0.568,0.009,1.115,0.031,1.595c0.02,0.482,0.026,1.132,0.026,1.872 c0.074,1.573,0.251,2.619,0.593,3.246c0.363,0.659,0.811,0.998,1.303,1.03c0.451,0,0.863-0.371,1.304-1.083 c0.326-0.607,0.483-1.658,0.483-3.193c0-0.74,0.021-1.39,0.033-1.872C152.918,18.335,152.929,17.788,152.929,17.22L152.929,17.22z M164.243,20.962l2.166-11.244h-1.188V7.799h4.278v1.919h-0.861l-3.417,16.499c-0.132,0.686-0.374,1.676-0.699,2.979 c-0.456,1.998-1.046,3.398-1.741,4.139c-0.748,0.725-1.457,1.082-2.211,1.051c-0.725-0.057-1.383-0.412-1.927-1.164 c-0.575-0.709-0.841-1.699-0.841-2.953c0.037-0.889,0.223-1.565,0.556-2.025c0.33-0.407,0.669-0.625,1.019-0.625 c0.395,0,0.746,0.218,1.054,0.625c0.311,0.46,0.466,0.973,0.466,1.652c0,0.799-0.114,1.367-0.373,1.725 c-0.032,0.064-0.093,0.097-0.145,0.16c-0.037,0.072-0.045,0.102-0.084,0.164c-0.067,0.132-0.067,0.295,0,0.488 c0.129,0.131,0.258,0.242,0.39,0.242c0.228,0.018,0.491-0.128,0.815-0.453c0.42-0.49,0.662-0.921,0.771-1.326 c0.08-0.359,0.214-1.029,0.351-2.011c0.098-0.47,0.196-0.959,0.299-1.479c0.084-0.5,0.155-0.911,0.188-1.186l-4.597-16.5h-1.133 v-1.92h5.308v1.919h-1.021L164.243,20.962L164.243,20.962z"/><g fill="#5D5D5D"><path d="M55.311 38.748c-.192.096-.533.158-.96.158-1.496 0-2.351-1.221-2.351-3.238 0-2.52 1.331-3.419 2.496-3.419.427 0 .719.087.854.166l-.196.873c-.154-.069-.31-.124-.62-.124-.71 0-1.436.646-1.436 2.436 0 1.754.659 2.391 1.445 2.391.244 0 .488-.053.641-.12L55.311 38.748zM57.097 37.145l-.352 1.709h-1.009l1.457-6.543h1.213l1.351 6.543h-1.011l-.35-1.709H57.097zM58.289 36.339l-.271-1.508c-.079-.427-.166-1.028-.244-1.483h-.027c-.069.455-.166 1.074-.244 1.483l-.292 1.508H58.289zM61.59 32.311v2.705h1.553v-2.705h1.041v6.543h-1.041v-2.887H61.59v2.887h-1.039v-6.543H61.59zM66.377 32.311v2.897h.105l1.212-2.897h1.138l-1.543 3.037c.728.225.969.862 1.144 1.656.139.637.244 1.266.439 1.85h-1.029c-.166-.445-.262-1.039-.379-1.563-.156-.777-.349-1.324-.99-1.324h-.096v2.887h-1.021v-6.543H66.377zM70.385 33.262h-1.174v-.951h3.398v.951h-1.186v5.592h-1.038V33.262zM75.073 35.121v.768h-2.02v-.768H75.073zM79.557 32.311v6.543h-1.039V33.21h-1.514v5.644h-1.038v-6.543H79.557zM83.324 35.87h-1.553v2.077h1.767v.904h-2.805v-6.541h2.688v.899h-1.649v1.796h1.553L83.324 35.87 83.324 35.87zM85.138 33.262h-1.174v-.951h3.398v.951h-1.186v5.592h-1.038V33.262zM90.681 35.87h-1.554v2.077h1.768v.904H88.09v-6.541h2.688v.899h-1.648v1.796h1.553L90.681 35.87 90.681 35.87zM91.769 32.406c.337-.079.756-.131 1.224-.131.688 0 1.242.131 1.631.496.349.332.523.838.523 1.397 0 .661-.184 1.116-.484 1.466-.389.461-1.021.672-1.574.672-.105 0-.192 0-.293 0v2.545h-1.026V32.406zM92.795 35.451c.078.02.156.02.252.02.681 0 1.06-.465 1.06-1.224 0-.608-.252-1.125-.951-1.125-.135 0-.272.019-.36.051V35.451zM99.058 32.311v.89h-2.05v1.631c.177-.026.33-.035.505-.035.563 0 1.06.175 1.409.49.369.34.593.837.593 1.476 0 .616-.187 1.1-.507 1.457-.418.45-1.067.68-1.94.68-.476 0-.837-.027-1.086-.063v-6.524H99.058zM97.008 38.034c.107.022.214.032.33.032.371 0 .65-.146.838-.381.174-.221.271-.524.271-.855 0-.34-.108-.629-.292-.846-.191-.211-.476-.358-.814-.358-.105 0-.215.011-.332.033V38.034L97.008 38.034zM100.727 32.311l.68 2.582c.105.395.193.768.254 1.084h.039c.057-.309.114-.717.184-1.108l.505-2.558h1.048l-.885 3.262c-.211.777-.477 1.807-.852 2.505-.302.532-.768.892-1.291.892-.188 0-.322-.019-.439-.045l.039-.847c.06.01.146.019.262.019.418 0 .74-.523.854-.916.041-.121.041-.236-.009-.375l-1.505-4.494H100.727zM103.979 32.406c.34-.079.756-.131 1.223-.131.688 0 1.242.131 1.631.496.35.332.523.838.523 1.397 0 .661-.184 1.116-.484 1.466-.388.461-1.021.672-1.574.672-.104 0-.191 0-.289 0v2.545h-1.028L103.979 32.406 103.979 32.406zM105.008 35.451c.076.02.154.02.253.02.677 0 1.056-.465 1.056-1.224 0-.608-.253-1.125-.951-1.125-.136 0-.271.019-.357.051V35.451zM111.006 32.311v.899h-1.776v5.644h-1.039v-6.543H111.006zM116.967 35.493c0 2.463-.864 3.438-2.021 3.438-1.3 0-1.95-1.39-1.95-3.359 0-1.963.738-3.342 2.047-3.342C116.422 32.23 116.967 33.732 116.967 35.493zM114.075 35.581c0 1.423.271 2.442.93 2.442.672 0 .886-1.17.886-2.484 0-1.186-.196-2.408-.894-2.408C114.345 33.131 114.075 34.211 114.075 35.581zM118.877 32.311v2.705h1.556v-2.705h1.038v6.543h-1.038v-2.887h-1.556v2.887h-1.039v-6.543H118.877zM126.012 32.311v6.543h-1.039V33.21h-1.145v1.953c0 1.589-.078 2.933-.863 3.515-.213.166-.479.264-.758.264l-.213-.875c.144-.031.291-.096.396-.196.388-.377.477-1.173.477-2.603v-2.957H126.012zM128.118 37.145l-.35 1.709h-1.008l1.457-6.543h1.212l1.349 6.543h-1.008l-.35-1.709H128.118zM129.312 36.339l-.271-1.508c-.078-.427-.166-1.028-.244-1.483h-.027c-.068.455-.166 1.074-.244 1.483l-.292 1.508H129.312zM132.495 32.311v1.842c0 1.178-.048 2.173-.104 3.01h.019c.204-.629.545-1.493.768-2.086l1.068-2.766h.942v6.543h-.912v-1.824c0-1.36.027-2.266.079-3.01h-.021c-.183.689-.483 1.441-.719 2.043l-1.078 2.791h-.959v-6.543H132.495zM132.896 31.036c.026.321.146.551.476.551.311 0 .467-.229.494-.551h.689c-.088.75-.493 1.038-1.184 1.038-.649 0-1.106-.288-1.164-1.038H132.896zM137.409 32.311v2.705h1.553v-2.705H140v6.543h-1.039v-2.887h-1.553v2.887h-1.039v-6.543H137.409z"/></g><path fill="#F48120" d="M-17.29,6.838c-0.97,1.603-1.31,2.622-1.359,4.952h-2.184c0.048-1.554,0.388-2.67,0.777-3.689 c0.485-1.214,0.777-1.603,1.262-2.282c0.535-0.777,1.263-1.554,2.137-2.185c0.825-0.68,1.844-1.214,2.961-1.603 c1.991-0.727,3.446-0.63,4.418-0.582c1.214,0.146,1.699,0.291,1.844,0.339c1.456,0.438,2.768,1.117,3.981,2.136 C-2.53,4.75-1.802,5.673-1.268,6.644c0.533,1.02,0.922,2.039,1.116,3.059c0.048,0.243,0.048,0.485,0.097,0.729 c0.243,2.039-0.194,4.272-1.311,6.117c-0.437,0.68-0.777,1.068-0.972,1.311c0.146-0.242,0.487-0.631,0.875-1.359 c1.02-1.893,1.311-4.078,0.922-6.02c-0.048-0.194-0.048-0.437-0.097-0.68c-0.291-0.971-0.68-1.894-1.213-2.816 c-0.583-0.874-1.312-1.699-2.186-2.33c-1.165-0.922-2.33-1.457-3.688-1.748C-7.871,2.857-8.259,2.76-9.327,2.712 c-0.389,0-1.943-0.097-3.835,0.68c-0.922,0.388-1.749,0.922-2.477,1.504C-16.318,5.527-16.853,6.207-17.29,6.838z M0.917,27.326 l-21.75,1.068v-2.137l13.739-12.914l-11.068,13.061h0.048v-0.048l12.623-11.508l-9.807,11.508l11.36-10.002l-8.739,10.292 l10.34-8.788l-7.622,8.933L0.917,27.326z M3.042,29.511l-23.875,1.069v-2.186L3.042,29.511z M-20.833,32.764V30.58l25.875,1.115 L-20.833,32.764z M-20.833,34.948v-2.185l30.875,1.117L-20.833,34.948z M-15.493,8.101c-0.777,1.31-0.922,2.232-0.971,3.689h-2.186 c0.098-1.894,0.68-3.35,1.651-4.709c1.457-2.087,4.273-3.835,7.816-3.398c1.457,0.146,2.961,0.777,4.224,1.845 c1.408,1.214,2.331,2.865,2.621,4.467c0.146,0.874,0.146,1.311,0.146,1.699c0.048,1.068-0.292,2.525-1.019,3.642 c-0.292,0.534-0.583,0.874-0.729,1.02c0.146-0.194,0.389-0.485,0.679-1.068c0.729-1.457,0.777-3.059,0.68-3.593 c0-0.34,0-0.776-0.243-1.553c-0.388-1.457-1.311-2.864-2.67-3.884C-6.705,5.333-8.211,4.896-9.23,4.896 C-12.289,4.848-14.376,6.207-15.493,8.101z M-13.697,9.363c-0.485,0.825-0.583,1.554-0.583,2.428h-2.185 c0.097-1.214,0.485-2.379,1.213-3.447c0.777-1.068,1.796-1.796,2.961-2.233c3.205-1.165,6.943,0.631,7.816,4.223 c0.244,1.068,0.146,2.622-0.533,3.787c-0.195,0.389-0.389,0.631-0.486,0.728c0.097-0.146,0.243-0.388,0.389-0.777 c0.583-1.262,0.437-2.719,0.098-3.641c-1.069-3.01-4.321-4.127-6.7-2.913C-12.532,7.906-13.26,8.538-13.697,9.363z M-6.56,11.548 c0,0.728-0.195,1.262-0.535,1.796c0.243-0.583,0.292-1.116,0.194-1.748C-7.143,10.14-8.454,9.12-9.764,9.217 c-1.019,0.048-1.796,0.583-2.136,1.359c-0.242,0.583-0.194,0.971-0.194,1.214h-2.185c0.097-0.874,0.34-1.603,0.825-2.185 c0.825-1.165,2.282-1.845,3.788-1.603C-7.92,8.246-6.56,9.8-6.56,11.548z"/><g fill="#F48120"><path d="M28.652 37.91c.466 0 .615-.064.633-.67l.167-4.927h2.897v6.52h-1.043v-5.588h-.894L30.3 37.185c-.037 1.192-.466 1.658-1.49 1.658h-.158V37.91zM34.158 35.062h1.406v.931h-1.406v1.909h1.77v.932h-2.794v-6.52h2.794v.932h-1.77V35.062zM36.264 32.313h3.167v.932H38.36v5.588h-1.025v-5.588h-1.071V32.313z"/></g></svg>